<?xml version="1.0" encoding="UTF-8"?>
<svg id="Capa_2" data-name="Capa 2" xmlns="http://www.w3.org/2000/svg" viewBox="0 0 151.36 118.83">
  <defs>
    <style>
      .cls-1 {
        fill: #fff;
        stroke-width: 0px;
      }
    </style>
  </defs>
  <g id="Capa_3" data-name="Capa 3">
    <path class="cls-1" d="m146.2,94.61c-5.71,4.05-15.19,10.09-27.91,14.98-10.2,3.92-58.8,20.97-97.36-4.43-8.76-5.77-14.8-12.28-18.61-17.02-1.04-2.95-5.12-15.53.91-29.28,4.39-10.01,11.83-15.35,14.98-17.36.15-.94,2.32-12.98,13.62-18.04,9.18-4.11,17.66-.61,19.06,0C59.1,7.37,76.09-1.86,92.76.32c19.83,2.6,35.69,20.91,35.4,42.89,2.42.87,14.15,5.37,20.09,18.04,7.72,16.47-1.25,32.04-2.04,33.36Z"/>
  </g>
</svg>