<?xml version="1.0" encoding="UTF-8"?>
<svg id="Capa_2" data-name="Capa 2" xmlns="http://www.w3.org/2000/svg" viewBox="0 0 198.53 260.67">
  <defs>
    <style>
      .cls-1 {
        fill: #f49c26;
        stroke-width: 0px;
      }
    </style>
  </defs>
  <g id="Capa_4" data-name="Capa 4">
    <path class="cls-1" d="m31.32,239.66c-5.44-4.82-12.51-12.15-18.72-22.47-8.14-13.5-11.27-26.23-12.6-34.38.63,1.34,2.93,5.82,8.17,8.17,3.08,1.38,5.91,1.45,7.49,1.36-3.16-9.26-7.34-25.72-4.77-45.96,4.15-32.55,23.05-53.34,29.96-60.26-.44,2.08-1.45,8.26,1.7,14.98,2.49,5.32,6.33,8.29,8.17,9.53-.4-6.89-2.1-47.47,28.94-79.66C103.67,6.07,132.84,1.17,141.96,0c-11.13,18.43-12.08,32.45-10.55,42.21,2.36,15.1,10.86,21.4,18.72,40.17,6.91,16.5,8.85,31.93,9.19,43.57,1.02-3.48,3.23-9.31,8.17-14.98,3.49-4.01,7.17-6.59,9.87-8.17-1.32,3.87-2.7,9.85-1.02,16.34,2.77,10.68,11.36,13.25,17.36,24.51,5.24,9.83,4.91,19.51,4.77,23.49-.81,23.14-19.39,38.25-23.15,41.19,2.96-1.12,6.32-2.65,9.87-4.77,5.63-3.35,9.89-7.08,12.94-10.21-1.63,5.82-4.74,14.29-10.89,23.15-7.05,10.16-15.09,16.51-20.43,20.09-9.07,6.41-22.05,13.89-38.8,18.76-4.16,1.21-16.13,4.46-32.11,5.07-10.46.4-20.94.8-33.67-3.06-6.83-2.07-18.73-6.72-30.91-17.7Z"/>
  </g>
</svg>