<?xml version="1.0" encoding="UTF-8"?>
<svg id="Capa_2" data-name="Capa 2" xmlns="http://www.w3.org/2000/svg" viewBox="0 0 449.7 263.26">
  <defs>
    <style>
      .cls-1 {
        stroke: #fff;
        stroke-miterlimit: 10;
        stroke-width: 3px;
      }

      .cls-1, .cls-2 {
        fill: #fff;
      }

      .cls-2 {
        stroke-width: 0px;
      }
    </style>
  </defs>
  <g id="Capa_2-2" data-name="Capa 2">
    <g>
      <g>
        <path class="cls-1" d="m6.42,3.91c6.05-1.3,13.98-2.41,24.07-2.41,12.4,0,21.48,3.71,27.24,10.4,5.33,5.94,8.5,15.04,8.5,26.18s-2.59,20.24-7.5,26.74c-6.63,9.1-17.44,13.74-29.69,13.74-3.75,0-7.21-.19-10.09-1.11v50.13H6.42V3.91Zm12.54,60.34c2.74.93,6.2,1.3,10.38,1.3,15.13,0,24.36-9.47,24.36-26.74s-9.08-24.51-22.92-24.51c-5.48,0-9.66.56-11.82,1.3v48.65Z"/>
        <path class="cls-1" d="m83.09,4.1c6.34-1.67,15.42-2.6,24.07-2.6,13.4,0,22.05,3.16,28.11,10.21,4.9,5.57,7.64,14.11,7.64,23.77,0,16.53-8.07,27.48-18.31,31.94v.56c7.5,3.34,11.96,12.25,14.27,25.25,3.17,17.45,5.48,29.52,7.5,34.35h-12.97c-1.59-3.53-3.75-14.3-6.49-29.89-2.88-17.27-8.07-23.77-19.46-24.32h-11.82v54.22h-12.54V4.1Zm12.54,57h12.83c13.41,0,21.91-9.47,21.91-23.77,0-16.15-9.08-23.21-22.34-23.39-6.05,0-10.38.74-12.4,1.49v45.67Z"/>
        <path class="cls-1" d="m210.94,68.9h-37.76v45.12h42.09v13.55h-54.63V2.43h52.47v13.55h-39.93v39.55h37.76v13.37Z"/>
        <path class="cls-1" d="m254.17,127.57L222.46,2.43h13.55l15.13,61.64c4.18,16.9,7.78,32.12,10.38,46.79h.29c2.74-14.48,6.77-30.26,11.1-46.6l16.43-61.83h13.4l-34.74,125.14h-13.84Z"/>
        <path class="cls-1" d="m363.57,68.9h-37.76v45.12h42.09v13.55h-54.63V2.43h52.46v13.55h-39.93v39.55h37.76v13.37Z"/>
        <path class="cls-1" d="m384.17,4.1c6.34-1.67,15.42-2.6,24.07-2.6,13.4,0,22.05,3.16,28.11,10.21,4.9,5.57,7.64,14.11,7.64,23.77,0,16.53-8.07,27.48-18.3,31.94v.56c7.49,3.34,11.96,12.25,14.27,25.25,3.17,17.45,5.48,29.52,7.5,34.35h-12.97c-1.59-3.53-3.75-14.3-6.49-29.89-2.88-17.27-8.07-23.77-19.46-24.32h-11.82v54.22h-12.54V4.1Zm12.54,57h12.83c13.4,0,21.91-9.47,21.91-23.77,0-16.15-9.08-23.21-22.34-23.39-6.05,0-10.38.74-12.4,1.49v45.67Z"/>
      </g>
      <g>
        <path class="cls-2" d="m2.59,245.59c4.59,3.66,11.29,6.7,18.35,6.7,10.47,0,16.58-7.16,16.58-17.52,0-9.6-4.23-15.08-14.94-20.41-12.94-5.94-20.94-14.62-20.94-29.09,0-15.99,10.23-27.88,25.64-27.88,8.12,0,14,2.44,17.52,5.03l-2.82,10.82c-2.59-1.83-7.88-4.87-15.06-4.87-10.82,0-14.94,8.38-14.94,15.39,0,9.6,4.82,14.32,15.76,19.8,13.41,6.7,20.23,15.08,20.23,30.16,0,15.84-9.06,29.55-27.76,29.55-7.65,0-16-2.89-20.23-6.55l2.59-11.12Z"/>
        <path class="cls-2" d="m103.04,213.6h-30.82v37.02h34.34v11.12h-44.58v-102.67h42.81v11.12h-32.58v32.45h30.82v10.97Z"/>
        <path class="cls-2" d="m119.86,160.44c5.18-1.37,12.59-2.13,19.64-2.13,10.94,0,18,2.59,22.94,8.38,4,4.57,6.23,11.58,6.23,19.5,0,13.56-6.59,22.54-14.94,26.2v.46c6.12,2.74,9.76,10.05,11.64,20.72,2.59,14.32,4.47,24.22,6.12,28.18h-10.59c-1.29-2.89-3.06-11.73-5.29-24.53-2.35-14.17-6.59-19.5-15.88-19.95h-9.64v44.48h-10.23v-101.3Zm10.23,46.76h10.47c10.94,0,17.88-7.77,17.88-19.5,0-13.25-7.41-19.04-18.23-19.19-4.94,0-8.47.61-10.12,1.22v37.47Z"/>
        <path class="cls-2" d="m202.43,261.74l-25.88-102.67h11.06l12.35,50.57c3.41,13.86,6.35,26.35,8.47,38.39h.24c2.24-11.88,5.53-24.83,9.06-38.23l13.41-50.73h10.94l-28.35,102.67h-11.29Z"/>
        <path class="cls-2" d="m260.89,159.07v102.67h-10.23v-102.67h10.23Z"/>
        <path class="cls-2" d="m334.17,258.39c-3.76,2.44-11.29,4.87-20.94,4.87-22.35,0-39.17-18.28-39.17-51.94s16.82-53.92,41.4-53.92c9.88,0,16.11,2.74,18.82,4.57l-2.47,10.82c-3.88-2.44-9.41-4.26-16-4.26-18.58,0-30.93,15.39-30.93,42.35,0,25.13,11.17,41.28,30.46,41.28,6.23,0,12.58-1.68,16.7-4.27l2.12,10.51Z"/>
        <path class="cls-2" d="m388.04,213.6h-30.82v37.02h34.34v11.12h-44.58v-102.67h42.81v11.12h-32.58v32.45h30.82v10.97Z"/>
        <path class="cls-2" d="m403.45,245.59c4.59,3.66,11.29,6.7,18.35,6.7,10.47,0,16.58-7.16,16.58-17.52,0-9.6-4.23-15.08-14.94-20.41-12.94-5.94-20.94-14.62-20.94-29.09,0-15.99,10.23-27.88,25.64-27.88,8.12,0,14,2.44,17.52,5.03l-2.82,10.82c-2.59-1.83-7.88-4.87-15.06-4.87-10.82,0-14.94,8.38-14.94,15.39,0,9.6,4.82,14.32,15.76,19.8,13.41,6.7,20.23,15.08,20.23,30.16,0,15.84-9.06,29.55-27.76,29.55-7.65,0-16-2.89-20.23-6.55l2.59-11.12Z"/>
      </g>
    </g>
  </g>
</svg>