<?xml version="1.0" encoding="UTF-8"?>
<svg id="Capa_2" data-name="Capa 2" xmlns="http://www.w3.org/2000/svg" viewBox="0 0 109.57 91.02">
  <defs>
    <style>
      .cls-1 {
        fill: #e03b40;
      }

      .cls-1, .cls-2 {
        stroke-width: 0px;
      }

      .cls-2 {
        fill: #1d1d1b;
      }
    </style>
  </defs>
  <g id="Capa_2-2" data-name="Capa 2">
    <g>
      <path class="cls-2" d="m105.16.45c-.29-.77-3.09-.32-3.23-.29l-27.45,4.59c-1.61.13-3.69.46-6,1.28-1.63.58-2.99,1.27-4.09,1.91-4.21,2.6-8.42,5.19-12.64,7.79-3.08,2.53-2.99,6.95-.76,8.94,2.16,1.93,6.4,1.61,8.64-1.54l11.4-11.1c10.2-3.04,20.4-6.07,30.6-9.11.45-.02,1.29-.13,2.12-.68.61-.39,1.6-1.27,1.41-1.79Zm-50.82,23.57c-1.86,0-3.36-1.5-3.36-3.36s1.5-3.36,3.36-3.36,3.36,1.5,3.36,3.36-1.51,3.36-3.36,3.36Z"/>
      <path class="cls-1" d="m44.87,49.21c2.17,1.27,7.4,3.95,14.55,3.83,7.6-.12,12.99-3.33,15.06-4.72,2.66.43,8.5,1.76,13.79,6.51,3.01,2.7,4.82,5.6,5.87,7.66l.17,22.72c-6.98,2.17-13.18,3.45-18.19,4.24-3.9.62-12.73,1.83-23.87,1.53-7.13-.19-11.54-.91-12.96-1.15-4.41-.75-8.07-1.76-10.76-2.61,0-8.07,0-16.14,0-24.22,1.11-2.16,3.3-5.74,7.28-8.94,3.45-2.78,6.86-4.16,9.06-4.85Z"/>
      <circle class="cls-1" cx="53.2" cy="36.69" r="9.21"/>
      <path class="cls-2" d="m49.83,48.15c4.17,1.13,8.53.09,11.36-2.81,2.73-2.79,3.02-6.26,3.06-7.28.88.25,2.27.79,3.45,2.04,3.11,3.31,1.62,8.28,1.53,8.55-1.97.81-5.64,2.03-10.34,1.79-4.08-.21-7.22-1.42-9.06-2.3Z"/>
      <path class="cls-2" d="m60.55,26.32c.31-.75.75-1.64,1.4-2.55,1.22-1.72,2.62-2.81,3.62-3.45,8.11.2,18.28,1.29,29.52,4.6,5.4,1.59,10.23,3.45,14.48,5.36-7.93-1.74-17.19-3.22-27.56-3.88-7.81-.49-15-.44-21.46-.08Z"/>
      <path class="cls-2" d="m47.02,26.19c-.87.57-2.65,1.92-3.87,4.34-1.43,2.85-1.24,5.49-1.11,6.51-3.16.89-6.09.66-7.23-.94-.52-.72-.47-2.04-.34-4.64.15-3.08.24-4.64,1.15-5.4.76-.64,1.66-.6,4.21-.43,2.79.19,5.22.39,7.19.55Z"/>
      <path class="cls-2" d="m30.98,28.4c.33.31,1.35,1.35,1.62,3.06.25,1.59-.3,2.82-.51,3.23-3.76,2.32-8.17,5.61-12.43,10.21-10.46,11.31-13.89,23.97-15.15,30.55-.74-.46-1.51-.96-2.3-1.53-.8-.57-1.54-1.15-2.21-1.7,1.26-6.58,3.77-14.82,8.85-23.23,3.53-5.84,8.42-13.72,17.96-18.72,1.69-.88,3.15-1.49,4.17-1.87Z"/>
    </g>
  </g>
</svg>